# xmcd
#
# Track frame offsets:
#	182
#	9770
#	24615
#	37592
#	48162
#	59265
#	73680
#	85622
#	97085
#	111760
#	123420
#	138542
#	151272
#	163177
#	174107
#	188210
#	201707
#	214895
#	225810
#	238900
#
# Disc length: 3360 seconds
#
# Revision: 0
# Processed by: cddbd v1.4PL0 Copyright (c) Steve Scherf et al.
# Submitted via: EasyCDDAExtractor 5.0.5.1
#
DISCID=050d1e14
DTITLE=Frankie Laine - The Best Of Frankie Laine
DYEAR=1994
DGENRE=Country
TTITLE0=Rawhide
TTITLE1=Jealousy
TTITLE2=Moonlight Gambler
TTITLE3=I Believe
TTITLE4=Hummingbird
TTITLE5=Don't Fence Me In
TTITLE6=Strange Lady In Town
TTITLE7=Rose, Rose I Love You
TTITLE8=There Must Be A Reason
TTITLE9=Answer Me
TTITLE10=Jezebel
TTITLE11=High Noon (Do Not Forsake Me)
TTITLE12=Mule Train
TTITLE13=Sixteen Tons
TTITLE14=Cool Water
TTITLE15=Wheel Of Fortune
TTITLE16=Rain, Rain, Rain
TTITLE17=A Woman In Love
TTITLE18=Granada
TTITLE19=Cry Of The Wild Goose
EXTD=
EXTT0=
EXTT1=
EXTT2=
EXTT3=
EXTT4=
EXTT5=
EXTT6=
EXTT7=
EXTT8=
EXTT9=
EXTT10=
EXTT11=
EXTT12=
EXTT13=
EXTT14=
EXTT15=
EXTT16=
EXTT17=
EXTT18=
EXTT19=
PLAYORDER=
